<svg width="256" height="256" version="1.1" viewBox="0 0 67.7 67.7" xmlns="http://www.w3.org/2000/svg"><g transform="translate(-51.3 -126)" stroke="#fff" stroke-width="4.38"><path d="m113 173-8.05-21.5 11.2-5.97-2.78-7.22c-12.9 5.97-38.9 18.6-38.9 18.6l3.98 8.14 18.5-9.56 7.58 21.2z" style="paint-order:stroke fill markers"/><path d="m106 149-0.438-18.9-4.83 0.404c-1.19 5.64-2.61 8.9-4.87 12.8-1.29-0.821-3.41-1.56-4.86-2.21l-1.41-10.1-4.93 0.722 2.54 19.8 4.9-0.776-0.601-4.72c1.99 1.02 3.54 1.39 5.58 2.63 1.81-2.24 2.54-3.38 4.13-6.9l0.377 7.45z" style="paint-order:stroke fill markers"/><path d="m65.4 146c-4.62 2.24-8.57 6.64-10.6 11.9-1.99 5.22-2.03 11.8 1.68 17.6 4.65 7.24 11.4 9.69 17.9 9.69 5.19 4.7e-4 12.3-2.89 15.3-8.13 2.57-4.58 8.18-6.46 10.5-2.39 3.63 6.23-3.64 9.69-9.49 8.25l-2.17 8.45s0.0061 4.8e-4 0.0098 2e-3c10.8 2.03 17.9-1.52 20.5-8.65 3.75-10.2-4.23-19.3-13.1-19.6-10.1-0.356-12.2 8.02-17.2 11-3.13 1.85-9 1.67-11.9-3.87-2.54-4.91-2.02-10.6 1.54-14.2 3.64-3.71 10.8-4.36 17.4-1.97l3.26-8.08c-9.67-3.43-16.8-3.17-23.6 0.129z" color="#000000" style="paint-order:stroke fill markers"/><path d="m74.4 129c-3.76 1.67-6.11 4.45-8.34 7.63l2.88 2.62 0.68-0.984c1.63 3.43 2.35 6.72 3.25 10.1l4.1-0.949-0.283-1.25 11.6 1.34 0.626-3.98-7.73-1.04c3.21-2.55 4.5-7.81 2.01-10.8-2.56-3.12-5.14-4.27-8.79-2.65zm2.04 3.69c1.28-0.279 2.5 0.0956 3.23 1.27 1.89 3.03-1.05 5.75-2.89 6.36l-1.69 0.567c-0.602-2.29-1.16-4.01-1.97-6.13 0.981-0.871 2.15-1.8 3.32-2.07z" style="paint-order:stroke fill markers"/></g></svg>
