<?xml version="1.0" encoding="UTF-8"?>
<svg width="445.13" height="208" version="1.1" viewBox="0 0 117.77 55.034" xmlns="http://www.w3.org/2000/svg"><g transform="translate(-118.07 -101.42)"><path transform="matrix(.26458 0 0 .26458 118.07 101.42)" d="m359.74 0-13.111 1.6582 1.9043 34.332c-7.9148-1.0836-11.616-3.312-17.32-8.0449-1.168-8.0086-1.8027-22.979-1.8027-22.979l-11.51 0.83984 3.3906 43.865 11.082-0.70898-0.4707-9.1426c4.7723 3.4548 10.046 5.6434 17.041 6.6914 6.5736 0.98491 11.855-0.16406 11.855-0.16406l-1.0586-46.348zm-45.953 6.25-11.854 1.6582 4.7578 43.205 10.996-1.0527-3.9004-43.811zm-65.42 1.1348-14.143 3.1934c-2.6834 16.615-5.1082 27.6-9.9629 39.664-4.1497-1.8734-9.8848-3.1579-14.449-4.4746l-7.0566-28.275-14.508 3.5312 13.113 56.869 14.193-4.3105-2.8789-13.586c6.3123 2.1498 10.837 2.6089 17.396 5.4043 4.8687-5.8511 5.9162-12.65 9.1836-23.201l3.7578 22.941 12.953-2.4805-7.5996-55.275zm34.041 2.7324-10.838 1.9727c-3.5913 11.65-4.4853 17.927-7.7402 28.51l-8.2852 1.4238 1.4121 10.555 3.8535-0.55859-1.582 5.6699 12.447-2.1289 2.3496-6.7148c7.1111-0.75266 11.31 0.86737 18.127 3.5117l11.66-1.0547c-4.5391-11.939-13.133-25.606-21.404-41.186zm-2.3027 17.1 6.0293 13.023c-5.7671-0.77004-6.1571-1.269-10.236-1.2129 1.2104-2.9353 2.6503-7.7843 4.207-11.811zm-96.113 1.8711c-1.733 0.057187-10.43 3.082-10.43 3.082l9.1113 32.186c-7.3943 2.2922-13.301 0.56413-21.193-3.3613-3.0152-7.6184-7.1914-22.197-7.1914-22.197l-10.27 3.25 12.744 41.273 10.094-3.3945-2.332-7.8496c7.422 2.8407 14.29 3.3593 20.975 2.2246 6.3426-1.1028 10.029-2.5996 10.029-2.5996l-11.289-42.584c-0.04901-0.024343-0.13252-0.03311-0.24805-0.029297zm219.37 8.6992c-11.693 0.15653-20.36 3.7384-27.428 7.6211-18.06 9.921-23.883 28.215-23.229 45.609 1.2878 34.216 38.765 47.73 61.494 41.117 16.268-4.7331 29.153-16.645 30.926-40.852l-41.369 2.9648 1.2949 16.166 13.283-1.5879c-10.181 11.573-32.747 6.8002-39.689-5.1738-7.8733-13.581-6.0501-31.381 5.0801-39.08 11.752-8.1289 19.144-8.2338 40.311-4.543l8.0332-16.754c-11.29-4.0995-20.707-5.5954-28.707-5.4883zm-264.56 6.1738-10.312 4.0117 13.652 40.803 10.193-3.5625-13.533-41.252zm-14.199 6.709-34.732 15.592 11.365 32.115c14.338 0.85758 24.885-2.6362 38.652-8.3398l-3.1445-8.1777c-8.7586 3.6595-18.522 6.6921-25.424 6.6152l14.445-9.2168-2.6914-7.248-15.252 9.209-3.9707-11.766 22.84-9.9883-2.0879-8.7949zm219.07 1.6523c-4.6245-0.006054-17.271 1.8789-17.271 1.8789l7.2188 58.066c-13.205-2.5033-21.32-6.2604-31.205-17.344-2.6201-13.905-6.7637-38.652-6.7637-38.652l-18.525 2.1289 12.646 77.27 18.982-2.3535-3.1758-16.176c10.828 7.98 16.918 10.239 27.686 11.334 10.225 0.99602 19.178-0.5332 19.178-0.5332l-7.1562-75.396c-0.1749-0.15477-0.75689-0.22154-1.6133-0.22266zm-73.197 11.176-18.357 2.9531 12.32 73.25 17.83-3.2539-11.793-72.949zm-186.65 0.71484-10.836 6.8008 11.01 26.357c-3.7409 0.93007-5.0231 0.85251-12.473 3.2227l-9.9004-20.643-9.7051 5.1406 8.8809 20.314-5.8047 2.6289 3.7422 9.6816 6.3828-2.9062 2.7734 5.9902 10.41-5.3496-2.6562-5.7656c4.3494-1.5032 6.7022-2.1684 12.547-3.2441l1.6465 3.3281 10.305-5.8887-16.322-39.668zm158.36 4.3867-21.465 5.2383 12.438 52.969c-11.851 1.8344-18.896-0.88152-32.549-4.1562-1.2621 4.6028-3.6961 8.4205-6.4062 11.236l-22.447-48.656-21.484 8.5645 38.781 73.336c12.085-6.1 13.948-11.599 21.25-23.277 12.875 3.3682 26.5 1.845 45.621-1.2344l-13.738-74.02zm-209.23 14.516c-2.3199-0.016126-4.5842 0.43831-6.7559 1.2773-1.6037 0.61958-3.1549 1.4487-4.6426 2.4531-10.188 6.8787-16.258 15.601-21.562 25.834l9.6016 6.5 1.6094-3.168c6.2219 9.3762 9.7338 18.74 13.773 28.312l11.752-4.4863-1.3535-3.5586 34.92-0.89649 0.2168-11.928-23.322 0.1543c8.4413-8.8063 9.5404-24.192 1.4863-32.643-5.2453-5.5032-10.619-7.8161-15.723-7.8516zm-0.41406 13.012c2.4828-0.052588 4.8328 0.90316 6.6602 3.0625 6.8544 8.0995-0.75564 17.288-5.9336 19.852l-4.7754 2.3652c-2.7244-6.4651-5.0896-11.287-8.3594-17.168l2.7383-3.0371c1.8708-2.0773 4.0372-3.5869 6.2383-4.3965 1.1464-0.42164 2.3031-0.65383 3.4316-0.67774zm94.457 6.5059c-24.126 0.01992-44.987 13.954-52.164 34.996-5.6896 16.681-3.2968 28.289 2.2676 39.076 16.451 31.892 56.201 21.124 66.916 3 3.9954-6.7583 12.351-10.346 16.795-8.1816 11.14 5.4242 2.4656 22.975-13.311 19.479l-3.7891 15.826s11.584 2.2379 18.629 0.53516c19.562-4.7279 31.019-28.684 15.295-47.936-13.509-16.539-34.98-8.2045-45.059 6.5215-8.2143 12.002-25.863 13.166-34.156 1.1973-5.9723-8.6193-4.4625-27.383 5.2734-36.766 7.7248-7.4443 19.955-10.501 35.186-6.252l7.0312-18.686c-6.4016-1.9155-12.764-2.8156-18.914-2.8106zm244.19 27.375-35.682 4.4766 1.3027 31.732c12.641 5.2902 24.053 6.5259 40.49 4.6797l-1.8047-8.9824c-10.159 1.3418-16.226 0.02253-24.414-1.4375l14.949-3.3887 0.07617-8.4336-18.021 4.373-0.55078-12.021 23.846-3.3184-0.19141-7.6797zm-42.031 5.2695-11.018 1.6895c-2.7956 12.994-6.2912 21.624-12.266 29.238-3.504-1.4392-8.4519-4.1484-12.328-5.1504l-1.7324-20.393-11.516 2.1074 4.2168 41.344 11.127-1.9238-1.2031-10.031c5.3508 1.6426 8.8739 3.9619 14.418 6.1074 4.3502-4.5989 7.2775-9.4509 11.186-18.525l1.8633 17.086 11.619-1.5879-4.3672-39.961zm-55.68 9.0918-12.094 2.5801 4.8516 41.537 12.418-2.4531-5.1758-41.664zm-15.424 4.7383c-18.733 4.0874-56.605 13.156-56.605 13.156l2.9297 11.781 27.129-7.166 5.9395 30.043 12.174-2.4922-6.4883-30.52 16.529-4.5664-1.6074-10.236z" stroke-width=".78689"/></g></svg>
