<svg width="433" height="208" version="1.1" viewBox="0 0 115 55" xmlns="http://www.w3.org/2000/svg"><g fill="#fff"><g stroke-width=".203"><path d="m63.1 49.5-1.72-7.75 4.17-1.48-0.603-2.61c-4.75 1.4-14.3 4.44-14.3 4.44l0.973 2.98 6.85-2.35 1.57 7.64z"/><path d="m70.4 47.4-1.34-10.8-3.12 0.667 1.25 10.7z"/><path d="m96 43.1-0.403-2.17c-3.44 0.356-4.44 0.335-6.98-0.0227l4.06-0.881 0.0787-2.01-4.62 1 0.0059-3.34 6.05-0.691 0.0048-1.99-9.37 0.906 0.243 8.21c3.45 1.26 5.98 1.47 10.9 0.976z"/><path d="m84.5 44.5-0.902-10.3-3.07 0.437c-0.722 3.36-1.62 5.59-3.17 7.56-0.905-0.372-2.18-1.07-3.18-1.33l-0.448-5.27-2.97 0.545 1.09 10.7 2.87-0.497-0.311-2.59c1.38 0.425 2.29 1.02 3.72 1.58 1.12-1.19 1.88-2.44 2.89-4.79l0.481 4.42z"/><path d="m66.1 15.7-2.34-14.3-3.65 0.825c-0.312 4.4-1.05 7.03-2.35 10.3-1.07-0.484-2.77-0.816-3.95-1.16l-2.15-7.47-3.69 1.08 4.04 14.7 3.67-1.11-0.961-3.51c1.63 0.556 2.85 0.674 4.55 1.4 1.15-1.89 1.58-2.83 2.43-5.67l1.08 5.6z"/><path d="m6.77 21.3c-0.414 0.16-0.815 0.374-1.2 0.634-2.63 1.78-4.2 4.03-5.57 6.68l2.48 1.68 0.415-0.819c1.61 2.42 2.51 4.84 3.56 7.32l3.03-1.16-0.35-0.92 9.02-0.232 0.0562-3.08-6.02 0.0398c2.18-2.28 2.46-6.25 0.383-8.44-1.97-2.07-4.01-2.39-5.8-1.7zm0.752 3.21c0.947-0.349 1.92-0.196 2.61 0.616 1.77 2.09-0.196 4.47-1.53 5.13l-1.23 0.611c-0.703-1.67-1.31-2.92-2.16-4.44l0.707-0.785c0.483-0.537 1.04-0.927 1.61-1.14z"/><path d="m36.1 22.7-0.812-2.11c-2.26 0.946-4.78 1.73-6.56 1.71l3.73-2.38-0.695-1.87-3.94 2.38-1.03-3.04 5.9-2.58-0.539-2.27-8.97 4.03 2.93 8.3c3.7 0.222 6.43-0.682 9.98-2.16z"/><path d="m39.3 21.5-3.49-10.7-2.66 1.04 3.53 10.5z"/><path d="m70.1 2.59c-0.927 3.01-1.16 4.63-2 7.37l-2.14 0.368 0.365 2.73 0.995-0.144-0.409 1.47 3.21-0.55 0.607-1.74c1.84-0.195 2.92 0.224 4.68 0.907l3.01-0.272c-1.17-3.09-3.39-6.62-5.53-10.6zm2.2 3.91 1.56 3.37c-1.49-0.199-1.59-0.328-2.64-0.313 0.313-0.759 0.684-2.01 1.09-3.05z"/><path d="m25.9 26.3-3.88-10.3-2.8 1.76 2.51 6.81c-0.966 0.24-1.3 0.22-3.22 0.833l-2.56-5.33-2.51 1.33 2.29 5.25-1.5 0.68 0.967 2.5 1.65-0.751 0.716 1.55 2.69-1.38-0.686-1.49c1.12-0.389 1.73-0.56 3.24-0.839l0.425 0.86z"/><path d="m43.1 20.1-0.602-2.03c1.92 0.734 3.69 0.869 5.42 0.575 1.64-0.285 2.59-0.672 2.59-0.672l-3.08-11c-0.202-0.101-2.76 0.789-2.76 0.789l2.52 8.32c-1.91 0.592-3.43 0.146-5.47-0.869-0.779-1.97-2.02-5.74-2.02-5.74l-2.65 0.84 3.45 10.7z"/><path d="m82 12.4-1.01-11.3-3.06 0.429 1.23 11.2z"/><path d="m85.8 12.1-0.121-2.36c1.23 0.893 2.59 1.46 4.4 1.73 1.7 0.255 3.06-0.0424 3.06-0.0424l-0.12-11.4-3.39 0.428 0.339 8.34c-2.04-0.28-3-0.856-4.47-2.08-0.302-2.07-0.466-5.94-0.466-5.94l-2.97 0.217 0.876 11.3z"/></g><path d="m79.1 33.9-0.472-4.18c2.7 2.06 4.24 2.65 7.01 2.93 2.63 0.257 4.96-0.138 4.96-0.138l-0.929-19.5c-0.277-0.256-4.9 0.428-4.9 0.428l1.16 15c-3.38-0.647-5.43-1.62-7.85-4.48-0.507-3.59-0.76-9.47-0.76-9.47l-4.81 0.55 1.81 19.5z" style="paint-order:markers stroke fill"/><path d="m72.7 34.6-2.16-18.9-4.78 0.763 2.29 18.9z" style="paint-order:markers stroke fill"/><path d="m55.7 36c3.32 0.871 5.97 0.994 10.9 0.198l-3.19-19.1-5.54 1.35 2.86 13.7c-2.79-0.032-4.34-0.328-7.54-1.59-0.533 1.16-1.37 2.21-2.11 3.17-2.37-2.29-5.29-6.97-6.89-12.3l-5.55 2.21c2.69 6.25 6.7 13 11 18.4 3.12-1.58 4.16-2.95 6.04-5.97z" style="paint-order:markers stroke fill"/></g><path d="m110 13.3c-8.53-2.99-14.3 0.545-16 4.85-2.08 5.47 0.865 12.9 7.53 14 4.24 0.702 7.04-0.647 8.53-2.32 1.54-1.73 1.71-3.8 1.71-3.8l-10.4-0.504" fill="none" stroke="#fff" stroke-width="4.88"/><path d="m26.4 27.3c-2.77 1.03-5.26 3.32-6.67 6.18-1.41 2.86-1.78 6.62 0.0364 10.1 2.28 4.36 6.03 6.11 9.74 6.46 2.97 0.275 7.21-0.99 9.17-3.81 1.71-2.47 5.02-3.24 6.17-0.8 1.75 3.73-2.59 5.31-5.87 4.19l-1.69 4.69s0.0039 9.7e-4 0.0059 2e-3c6.08 1.73 10.3 0.0825 12.2-3.83 2.68-5.61-1.41-11.2-6.49-11.9-5.77-0.738-7.42 3.91-10.4 5.32-1.89 0.885-5.24 0.471-6.6-2.83-1.2-2.93-0.603-6.12 1.63-8 2.28-1.92 6.43-1.9 10.1-0.198l2.29-4.42c-5.36-2.46-9.48-2.69-13.5-1.18z" color="#000000" fill="#fff" stroke-width=".488" style="-inkscape-stroke:none"/></svg>
